<svg width="45" height="45" viewBox="0 0 124 124" fill="none" xmlns="http://www.w3.org/2000/svg">
<path d="M118.049 43.1494C121.597 43.1494 123.473 41.2077 123.473 37.6586V21.2523C123.473 7.45773 116.509 0.560303 102.446 0.560303H86.1069C82.5577 0.560303 80.6157 2.5023 80.6157 5.91745C80.6157 9.39945 82.5577 11.3417 86.1069 11.3417H102.312C108.875 11.3417 112.692 14.8909 112.692 21.8549V37.6586C112.692 41.2077 114.634 43.1494 118.049 43.1494ZM5.95061 43.1494C9.4329 43.1494 11.3078 41.2077 11.3078 37.6586V21.8549C11.3078 14.8909 15.0578 11.3417 21.7543 11.3417H37.9595C41.4417 11.3417 43.3838 9.39945 43.3838 5.91745C43.3838 2.5023 41.4417 0.560303 37.9595 0.560303H21.5532C7.6249 0.560303 0.526611 7.45773 0.526611 21.2523V37.6586C0.526611 41.2077 2.46861 43.1494 5.95061 43.1494ZM32.9372 88.8192H89.5892C94.0086 88.8192 97.2229 85.7389 97.2229 81.4532V47.4352C97.2229 43.1494 94.0086 40.0692 89.5892 40.0692H79.4103C77.7363 40.0692 76.8657 39.6006 75.4595 37.9263L74.0535 36.1854C72.5132 34.2434 70.638 33.3729 68.3615 33.3729H54.2989C51.888 33.3729 50.0132 34.2434 48.4729 36.1854L47.0666 37.9263C45.6603 39.6006 44.8569 40.0692 43.3166 40.0692H32.9372C28.5175 40.0692 25.4372 43.1494 25.4372 47.4352V81.4532C25.4372 85.7389 28.5175 88.8192 32.9372 88.8192ZM61.33 78.9754C52.424 78.9754 45.1917 71.6763 45.1917 62.7703C45.1917 53.73 52.424 46.4977 61.33 46.4977C70.3703 46.4977 77.5355 53.73 77.5355 62.7703C77.5355 71.6763 70.3703 78.9754 61.33 78.9754ZM61.33 74.2212C67.6917 74.2212 72.848 69.1317 72.848 62.7703C72.848 56.2746 67.6917 51.1854 61.33 51.1854C54.9683 51.1854 49.8792 56.2746 49.8792 62.7703C49.8792 69.1317 54.9683 74.2212 61.33 74.2212ZM21.5532 123.44H37.9595C41.4417 123.44 43.3838 121.498 43.3838 118.083C43.3838 114.601 41.4417 112.659 37.9595 112.659H21.7543C15.0578 112.659 11.3078 109.109 11.3078 102.145V86.3417C11.3078 82.7926 9.36575 80.8506 5.95061 80.8506C2.40147 80.8506 0.526611 82.7926 0.526611 86.3417V102.681C0.526611 116.542 7.6249 123.44 21.5532 123.44ZM86.1069 123.44H102.446C116.509 123.44 123.473 116.475 123.473 102.681V86.3417C123.473 82.7926 121.531 80.8506 118.049 80.8506C114.567 80.8506 112.692 82.7926 112.692 86.3417V102.145C112.692 109.109 108.875 112.659 102.312 112.659H86.1069C82.5577 112.659 80.6157 114.601 80.6157 118.083C80.6157 121.498 82.5577 123.44 86.1069 123.44Z" fill="#7E7C87"/>
</svg>