<svg width="36" height="36" viewBox="0 0 120 120" fill="none" xmlns="http://www.w3.org/2000/svg">
<path fill-rule="evenodd" clip-rule="evenodd" d="M90.5616 78.394L90.5904 50.5876L70.8 30.8595C64.8274 24.9134 55.1722 24.9134 49.2 30.8595L29.4528 50.5396V78.3796C29.4686 86.7997 36.3061 93.6133 44.7264 93.6004H75.288C83.7024 93.6138 90.5376 86.8084 90.5616 78.394Z" stroke="white" stroke-width="7" stroke-linecap="round" stroke-linejoin="round"/>
<path d="M94.1952 31.2868C94.1952 29.2985 92.5834 27.6868 90.5952 27.6868C88.607 27.6868 86.9952 29.2985 86.9952 31.2868H94.1952ZM90.5952 50.5877H86.9952C86.9952 51.5443 87.3758 52.4616 88.0536 53.137L90.5952 50.5877ZM95.8584 60.9178C97.2663 62.3218 99.5458 62.318 100.949 60.9101C102.353 59.5018 102.35 57.2227 100.942 55.8188L95.8584 60.9178ZM31.9945 53.089C33.4025 51.6855 33.406 49.4059 32.0023 47.9979C30.5986 46.5898 28.3191 46.5863 26.9111 47.9901L31.9945 53.089ZM19.0583 55.8188C17.6503 57.2227 17.6468 59.5018 19.0505 60.9101C20.4543 62.318 22.7337 62.3218 24.1417 60.9178L19.0583 55.8188ZM66 93.6005C66 95.5887 67.6118 97.2005 69.6 97.2005C71.5882 97.2005 73.2 95.5887 73.2 93.6005H66ZM46.8 93.6005C46.8 95.5887 48.4118 97.2005 50.4 97.2005C52.3882 97.2005 54 95.5887 54 93.6005H46.8ZM86.9952 31.2868V50.5877H94.1952V31.2868H86.9952ZM88.0536 53.137L95.8584 60.9178L100.942 55.8188L93.1368 48.038L88.0536 53.137ZM26.9111 47.9901L19.0583 55.8188L24.1417 60.9178L31.9945 53.089L26.9111 47.9901ZM73.2 93.6005V85.0565H66V93.6005H73.2ZM73.2 85.0565C73.2 77.7663 67.2902 71.8565 60 71.8565V79.0565C63.3139 79.0565 66 81.7426 66 85.0565H73.2ZM60 71.8565C52.7098 71.8565 46.8 77.7663 46.8 85.0565H54C54 81.7426 56.6861 79.0565 60 79.0565V71.8565ZM46.8 85.0565V93.6005H54V85.0565H46.8Z" fill="white"/>
</svg>
