<svg width="36" height="36" viewBox="0 0 89 67" fill="none" xmlns="http://www.w3.org/2000/svg">
<path d="M27.375 0.53125C25.0105 0.53125 23.0937 2.44805 23.0937 4.8125C23.0937 7.17695 25.0105 9.09375 27.375 9.09375V0.53125ZM84.4583 9.09375C86.8227 9.09375 88.7395 7.17695 88.7395 4.8125C88.7395 2.44805 86.8227 0.53125 84.4583 0.53125V9.09375ZM4.54163 0.53125C2.17718 0.53125 0.260376 2.44805 0.260376 4.8125C0.260376 7.17695 2.17718 9.09375 4.54163 9.09375V0.53125ZM10.25 9.09375C12.6144 9.09375 14.5312 7.17695 14.5312 4.8125C14.5312 2.44805 12.6144 0.53125 10.25 0.53125V9.09375ZM4.54163 29.0729C2.17718 29.0729 0.260376 30.9898 0.260376 33.3542C0.260376 35.7186 2.17718 37.6354 4.54163 37.6354V29.0729ZM10.25 37.6354C12.6144 37.6354 14.5312 35.7186 14.5312 33.3542C14.5312 30.9898 12.6144 29.0729 10.25 29.0729V37.6354ZM4.54163 57.6146C2.17718 57.6146 0.260376 59.5314 0.260376 61.8958C0.260376 64.2602 2.17718 66.1771 4.54163 66.1771V57.6146ZM10.25 66.1771C12.6144 66.1771 14.5312 64.2602 14.5312 61.8958C14.5312 59.5314 12.6144 57.6146 10.25 57.6146V66.1771ZM27.375 29.0729C25.0105 29.0729 23.0937 30.9898 23.0937 33.3542C23.0937 35.7186 25.0105 37.6354 27.375 37.6354V29.0729ZM84.4583 37.6354C86.8227 37.6354 88.7395 35.7186 88.7395 33.3542C88.7395 30.9898 86.8227 29.0729 84.4583 29.0729V37.6354ZM27.375 57.6146C25.0105 57.6146 23.0937 59.5314 23.0937 61.8958C23.0937 64.2602 25.0105 66.1771 27.375 66.1771V57.6146ZM84.4583 66.1771C86.8227 66.1771 88.7395 64.2602 88.7395 61.8958C88.7395 59.5314 86.8227 57.6146 84.4583 57.6146V66.1771ZM27.375 9.09375H84.4583V0.53125H27.375V9.09375ZM4.54163 9.09375H10.25V0.53125H4.54163V9.09375ZM4.54163 37.6354H10.25V29.0729H4.54163V37.6354ZM4.54163 66.1771H10.25V57.6146H4.54163V66.1771ZM27.375 37.6354H84.4583V29.0729H27.375V37.6354ZM27.375 66.1771H84.4583V57.6146H27.375V66.1771Z" fill="white"/>
</svg>
